<svg xmlns="http://www.w3.org/2000/svg" xmlns:xlink="http://www.w3.org/1999/xlink" width="1080" zoomAndPan="magnify" viewBox="0 0 810 809.999993" height="1080" preserveAspectRatio="xMidYMid meet" version="1.0"><defs><clipPath id="24fe58f9fe"><path d="M 22.429688 23.820312 L 787.429688 23.820312 L 787.429688 785.820312 L 22.429688 785.820312 Z M 22.429688 23.820312 " clip-rule="nonzero"/></clipPath></defs><g clip-path="url(#24fe58f9fe)"><path fill="#000000" d="M 787.652344 406.4375 C 787.652344 195.109375 616.363281 23.820312 405.066406 23.820312 C 193.773438 23.820312 22.449219 195.109375 22.449219 406.4375 C 22.449219 585.867188 145.972656 736.445312 312.625 777.792969 L 312.625 523.367188 L 233.710938 523.367188 L 233.710938 406.4375 L 312.625 406.4375 L 312.625 356.0625 C 312.625 225.84375 371.550781 165.472656 499.402344 165.472656 C 523.644531 165.472656 565.472656 170.210938 582.574219 174.984375 L 582.574219 280.960938 C 573.539062 279.996094 557.847656 279.515625 538.375 279.515625 C 475.636719 279.515625 451.394531 303.28125 451.394531 365.058594 L 451.394531 406.402344 L 576.355469 406.402344 L 554.894531 523.332031 L 451.394531 523.332031 L 451.394531 786.207031 C 640.847656 763.335938 787.652344 602.003906 787.652344 406.402344 Z M 787.652344 406.4375 " fill-opacity="1" fill-rule="nonzero"/></g></svg>