<svg xmlns="http://www.w3.org/2000/svg" xmlns:xlink="http://www.w3.org/1999/xlink" width="1080" zoomAndPan="magnify" viewBox="0 0 810 809.999993" height="1080" preserveAspectRatio="xMidYMid meet" version="1.0"><defs><clipPath id="b6a31747a3"><path d="M 41.109375 41.109375 L 768.609375 41.109375 L 768.609375 768.609375 L 41.109375 768.609375 Z M 41.109375 41.109375 " clip-rule="nonzero"/></clipPath></defs><g clip-path="url(#b6a31747a3)"><path fill="#000000" d="M 254.199219 43.609375 C 215.496094 45.429688 189.066406 51.632812 165.960938 60.683594 C 142.03125 70.007812 121.769531 82.484375 101.613281 102.746094 C 81.421875 123.003906 69.011719 143.300781 59.792969 167.261719 C 50.84375 190.4375 44.777344 216.867188 43.0625 255.605469 C 41.347656 294.375 40.972656 306.75 41.144531 405.546875 C 41.316406 504.3125 41.761719 516.71875 43.609375 555.527344 C 45.460938 594.230469 51.632812 620.625 60.683594 643.765625 C 70.007812 667.691406 82.484375 687.917969 102.746094 708.109375 C 123.003906 728.300781 143.300781 740.675781 167.261719 749.933594 C 190.402344 758.878906 216.867188 764.980469 255.570312 766.660156 C 294.375 768.375 306.75 768.753906 405.511719 768.546875 C 504.3125 768.375 516.6875 767.929688 555.492188 766.078125 C 594.195312 764.226562 620.589844 758.023438 643.730469 749.007812 C 667.660156 739.648438 687.917969 727.203125 708.074219 706.945312 C 728.234375 686.683594 740.644531 666.390625 749.898438 642.429688 C 758.847656 619.289062 764.949219 592.824219 766.628906 554.15625 C 768.308594 515.347656 768.71875 502.941406 768.546875 404.175781 C 768.375 305.414062 767.894531 293.039062 766.078125 254.234375 C 764.226562 215.496094 758.058594 189.097656 749.007812 165.960938 C 739.648438 142.03125 727.203125 121.804688 706.945312 101.613281 C 686.683594 81.457031 666.390625 69.011719 642.429688 59.792969 C 619.289062 50.84375 592.824219 44.742188 554.121094 43.0625 C 515.316406 41.347656 502.90625 40.972656 404.140625 41.144531 C 305.378906 41.316406 293.003906 41.761719 254.199219 43.609375 M 258.449219 701.152344 C 223.003906 699.609375 203.738281 693.710938 190.882812 688.777344 C 173.878906 682.195312 161.777344 674.308594 148.992188 661.660156 C 136.238281 648.941406 128.351562 636.839844 121.703125 619.90625 C 116.730469 607.085938 110.734375 587.851562 109.054688 552.371094 C 107.238281 514.046875 106.824219 502.527344 106.652344 405.410156 C 106.480469 308.328125 106.824219 296.808594 108.503906 258.449219 C 110.011719 223.003906 115.945312 203.738281 120.878906 190.914062 C 127.460938 173.914062 135.3125 161.8125 147.996094 149.023438 C 160.714844 136.273438 172.816406 128.386719 189.785156 121.738281 C 202.605469 116.730469 221.835938 110.765625 257.285156 109.085938 C 295.644531 107.269531 307.128906 106.894531 404.246094 106.6875 C 501.363281 106.480469 512.882812 106.824219 551.242188 108.539062 C 586.6875 110.082031 605.953125 115.945312 618.773438 120.914062 C 635.777344 127.496094 647.914062 135.3125 660.664062 148.03125 C 673.417969 160.75 681.335938 172.816406 687.953125 189.820312 C 692.957031 202.605469 698.921875 221.871094 700.601562 257.285156 C 702.417969 295.644531 702.832031 307.160156 703.003906 404.246094 C 703.171875 501.363281 702.832031 512.882812 701.152344 551.207031 C 699.609375 586.652344 693.710938 605.953125 688.777344 618.773438 C 682.195312 635.742188 674.34375 647.878906 661.625 660.632812 C 648.90625 673.347656 636.839844 681.269531 619.835938 687.917969 C 607.050781 692.925781 587.785156 698.890625 552.371094 700.570312 C 514.011719 702.386719 502.527344 702.796875 405.375 702.96875 C 308.292969 703.140625 296.773438 702.796875 258.414062 701.117188 M 554.976562 210.421875 C 555.011719 234.519531 574.621094 254.027344 598.6875 253.957031 C 622.785156 253.925781 642.292969 234.351562 642.257812 210.25 C 642.222656 186.152344 622.613281 166.644531 598.515625 166.679688 C 574.414062 166.714844 554.910156 186.320312 554.945312 210.386719 M 218.066406 405.207031 C 218.273438 508.355469 302.054688 591.796875 405.171875 591.589844 C 508.320312 591.382812 591.796875 507.636719 591.589844 404.484375 C 591.382812 301.367188 507.601562 217.894531 404.449219 218.066406 C 301.335938 218.273438 217.859375 302.054688 218.066406 405.207031 M 283.578125 405.066406 C 283.472656 338.117188 337.636719 283.714844 404.589844 283.609375 C 471.539062 283.472656 525.941406 337.636719 526.078125 404.621094 C 526.214844 471.574219 472.019531 525.976562 405.066406 526.078125 C 338.117188 526.214844 283.714844 472.019531 283.609375 405.066406 " fill-opacity="1" fill-rule="nonzero"/></g></svg>