<svg xmlns="http://www.w3.org/2000/svg" xmlns:xlink="http://www.w3.org/1999/xlink" width="1080" zoomAndPan="magnify" viewBox="0 0 810 809.999993" height="1080" preserveAspectRatio="xMidYMid meet" version="1.0"><defs><clipPath id="5af7cd53c3"><path d="M 81 25.101562 L 744 25.101562 L 744 784.851562 L 81 784.851562 Z M 81 25.101562 " clip-rule="nonzero"/></clipPath></defs><g clip-path="url(#5af7cd53c3)"><path fill="#000000" d="M 644.710938 177.347656 C 603.777344 150.652344 574.28125 107.988281 565.042969 58.230469 C 563.078125 47.507812 561.945312 36.421875 561.945312 25.101562 L 431.390625 25.101562 L 431.152344 548.40625 C 428.945312 606.980469 380.738281 654.054688 321.570312 654.054688 C 303.214844 654.054688 285.875 649.464844 270.683594 641.421875 C 235.761719 623.007812 211.808594 586.421875 211.808594 544.292969 C 211.808594 483.75 261.027344 434.53125 321.570312 434.53125 C 332.890625 434.53125 343.675781 436.378906 353.984375 439.597656 L 353.984375 306.296875 C 343.378906 304.867188 332.59375 303.972656 321.570312 303.972656 C 189.105469 303.914062 81.3125 411.769531 81.3125 544.292969 C 81.3125 625.570312 121.953125 697.554688 183.921875 741.054688 C 222.953125 768.464844 270.445312 784.613281 321.628906 784.613281 C 454.152344 784.613281 561.945312 676.816406 561.945312 544.292969 L 561.945312 278.945312 C 613.132812 315.710938 675.878906 337.34375 743.628906 337.34375 L 743.628906 206.785156 C 707.160156 206.785156 673.195312 195.941406 644.710938 177.347656 Z M 644.710938 177.347656 " fill-opacity="1" fill-rule="nonzero"/></g></svg>