<svg xmlns="http://www.w3.org/2000/svg" xmlns:xlink="http://www.w3.org/1999/xlink" width="1080" zoomAndPan="magnify" viewBox="0 0 810 809.999993" height="1080" preserveAspectRatio="xMidYMid meet" version="1.0"><defs><clipPath id="d390b9793a"><path d="M 20.921875 142.386719 L 788.921875 142.386719 L 788.921875 667.386719 L 20.921875 667.386719 Z M 20.921875 142.386719 " clip-rule="nonzero"/></clipPath></defs><g clip-path="url(#d390b9793a)"><path fill="#000000" d="M 756.320312 193.023438 C 735.519531 156.195312 712.929688 149.433594 666.972656 146.851562 C 621.050781 143.75 505.582031 142.460938 405.558594 142.460938 C 305.335938 142.460938 189.820312 143.75 143.945312 146.796875 C 98.085938 149.433594 74.910156 156.152344 53.925781 193.023438 C 32.488281 229.804688 20.921875 293.148438 20.921875 404.667969 L 20.921875 405.050781 C 20.921875 516.089844 32.488281 579.910156 53.921875 616.300781 C 74.90625 653.132812 97.753906 659.808594 143.628906 662.902344 C 189.542969 665.578125 305.195312 667.15625 405.417969 667.15625 C 505.441406 667.15625 620.972656 665.578125 666.9375 662.953125 C 712.90625 659.859375 735.519531 653.175781 756.324219 616.355469 C 777.9375 579.960938 788.921875 516.140625 788.921875 405.09375 L 788.921875 404.714844 C 788.921875 293.148438 777.972656 229.804688 756.320312 193.023438 Z M 308.921875 547.910156 L 308.921875 261.710938 L 548.566406 404.808594 Z M 308.921875 547.910156 " fill-opacity="1" fill-rule="nonzero"/></g></svg>